<?xml version="1.0" standalone="no"?>
<!DOCTYPE svg PUBLIC "-//W3C//DTD SVG 20010904//EN"
 "http://www.w3.org/TR/2001/REC-SVG-20010904/DTD/svg10.dtd">
<svg version="1.0" xmlns="http://www.w3.org/2000/svg"
 width="140.000000pt" height="140.000000pt" viewBox="0 0 140.000000 140.000000"
 preserveAspectRatio="xMidYMid meet">
<metadata>
Created by potrace 1.11, written by Peter Selinger 2001-2013
</metadata>
<g transform="translate(0.000000,140.000000) scale(0.100000,-0.100000)"
fill="#000000" stroke="none">
<path d="M0 700 l0 -700 700 0 700 0 0 700 0 700 -700 0 -700 0 0 -700z m780
5 c13 -16 16 -113 5 -167 -8 -38 -50 -105 -75 -118 -28 -15 -59 0 -76 36 -10
21 -24 34 -35 34 -11 0 -19 5 -19 11 0 6 -9 24 -20 39 -23 33 -20 62 14 122
24 44 37 47 66 16 l20 -22 22 22 c20 18 60 39 79 41 4 1 12 -6 19 -14z"/>
<path d="M660 595 c0 -8 4 -15 10 -15 5 0 7 7 4 15 -4 8 -8 15 -10 15 -2 0 -4
-7 -4 -15z"/>
<path d="M645 540 c3 -5 10 -10 16 -10 5 0 9 5 9 10 0 6 -7 10 -16 10 -8 0
-12 -4 -9 -10z"/>
<path d="M710 487 c0 -9 -9 -21 -20 -27 -11 -6 -18 -15 -15 -20 7 -11 65 15
65 29 0 5 -7 14 -15 21 -12 10 -15 10 -15 -3z"/>
</g>
</svg>
